<?xml version="1.0" standalone="no"?>
<!DOCTYPE svg PUBLIC "-//W3C//DTD SVG 20010904//EN" "http://www.w3.org/TR/2001/REC-SVG-20010904/DTD/svg10.dtd">
<svg version="1.0" xmlns="http://www.w3.org/2000/svg"
  width="538.000000pt" height="246.000000pt" viewBox="0 0 538.000000 246.000000"
  preserveAspectRatio="xMidYMid meet">

  <g transform="translate(0.000000,246.000000) scale(0.100000,-0.100000)"
    fill="#0006c0" stroke="none">
    <path
      d="M865 2449 c-460 -58 -778 -358 -850 -802 -21 -127 -21 -692 0 -827
59 -392 298 -665 677 -774 168 -48 100 -46 2007 -46 1881 0 1851 -1 1998 43
197 59 375 184 489 343 62 87 130 236 161 351 25 92 26 115 31 384 7 455 -16
636 -103 815 -130 268 -378 444 -716 509 -72 13 -292 15 -1853 14 -974 -1
-1802 -5 -1841 -10z m3729 -183 c312 -80 510 -267 587 -556 21 -79 23 -110 27
-443 3 -305 1 -369 -13 -440 -59 -292 -246 -518 -502 -608 -159 -56 -51 -53
-1943 -56 -1200 -3 -1770 -1 -1827 7 -378 49 -621 236 -720 555 l-28 90 0 415
0 415 29 85 c87 258 234 417 463 500 168 60 84 58 2039 59 l1791 1 97 -24z" />
    <path
      d="M724 2040 c-82 -3 -126 -9 -138 -19 -12 -10 -16 -32 -16 -97 l0 -84
38 0 39 0 6 -157 c4 -87 7 -352 7 -589 l0 -431 23 -21 c20 -19 35 -22 110 -22
77 0 87 2 101 22 14 20 16 88 16 543 1 556 -2 529 43 461 11 -16 17 -17 35 -7
19 10 23 8 41 -28 11 -21 26 -45 34 -52 7 -8 71 -116 143 -241 112 -198 132
-228 153 -228 30 0 106 44 115 65 3 9 -6 36 -20 61 -26 44 -29 69 -4 39 29
-35 47 -17 116 108 66 121 116 209 157 278 19 31 25 35 41 25 14 -8 20 -8 23
0 2 6 10 20 18 30 13 17 14 -48 15 -504 0 -464 2 -525 16 -547 15 -23 22 -25
103 -25 142 0 131 -45 132 516 1 258 4 521 8 584 l6 115 38 3 37 3 0 83 c0
118 4 116 -208 117 -222 0 -222 0 -222 -117 l0 -83 43 -3 42 -3 3 -50 c1 -27
-1 -45 -5 -40 -5 6 -42 37 -83 68 -81 63 -106 68 -129 25 -14 -24 -14 -28 2
-46 18 -19 17 -22 -16 -88 -48 -95 -186 -347 -196 -357 -7 -7 -105 161 -196
332 l-28 54 22 18 22 18 -21 40 c-15 30 -27 41 -44 41 -24 0 -182 -84 -217
-116 -20 -18 -20 -18 -17 41 l3 60 43 3 42 3 0 83 c0 65 -4 87 -16 97 -22 18
-114 25 -260 19z m-54 -117 c0 -53 0 -54 -27 -51 -26 3 -28 6 -31 56 -4 66 11
91 39 66 14 -13 19 -31 19 -71z m176 62 c20 -20 25 -33 22 -68 l-3 -42 -77 -3
-78 -3 0 51 c0 46 3 52 33 70 43 27 73 25 103 -5z m1148 4 c22 -17 26 -28 26
-70 l0 -49 -75 0 -75 0 0 54 c0 45 4 58 22 70 31 22 70 20 102 -5z m124 -58
c-3 -52 -5 -56 -28 -56 -22 0 -25 5 -28 43 -4 55 21 100 44 81 11 -9 14 -28
12 -68z m-1160 1 l3 -63 -28 3 c-24 3 -28 8 -31 37 -4 44 16 93 37 89 12 -2
17 -18 19 -66z m861 45 c7 -13 11 -41 9 -63 -3 -34 -6 -39 -30 -42 -28 -3 -28
-3 -28 56 0 32 3 62 7 65 13 13 30 7 42 -16z m-169 -152 c0 -16 -6 -25 -15
-25 -16 0 -19 9 -9 34 9 25 24 19 24 -9z m-772 -72 l3 -83 -96 0 -95 0 0 85 0
86 93 -3 92 -3 3 -82z m1162 2 l0 -85 -90 0 -90 0 0 85 0 85 90 0 90 0 0 -85z
m-875 49 c14 -22 15 -28 4 -35 -21 -13 -27 -11 -39 12 -12 22 -7 49 9 49 5 0
16 -12 26 -26z m555 -18 c13 -15 20 -32 17 -40 -8 -21 -17 -20 -50 10 -24 20
-27 27 -17 39 17 20 23 19 50 -9z m-614 -13 c20 -26 18 -29 -31 -57 l-46 -25
-12 26 c-10 23 -8 28 16 49 33 28 55 30 73 7z m608 -75 c6 -10 4 -22 -6 -37
l-16 -22 -27 23 c-24 21 -26 26 -14 51 11 25 14 26 33 14 11 -8 24 -21 30 -29z
m76 27 c0 -15 -26 -32 -36 -23 -2 3 -2 13 2 22 8 20 34 21 34 1z m-806 -11
c20 -19 20 -40 1 -48 -15 -6 -35 21 -35 48 0 20 14 20 34 0z m179 -25 c9 -17
17 -36 17 -42 -1 -7 -10 5 -21 26 -19 36 -39 49 -39 25 0 -7 7 -22 15 -32 22
-30 18 -41 -20 -59 -20 -9 -37 -17 -39 -17 -9 0 -47 75 -39 77 4 2 26 14 48
28 51 31 57 31 78 -6z m-388 -69 c-44 -11 -75 -11 -75 0 0 6 23 9 53 9 44 -1
48 -2 22 -9z m1255 0 c0 -11 -31 -11 -75 0 -26 7 -22 8 23 9 29 0 52 -3 52 -9z
m-1160 -34 c0 -2 -30 -9 -67 -15 -38 -7 -76 -14 -85 -17 -10 -3 -18 -1 -18 4
0 5 26 14 58 20 63 10 112 14 112 8z m1096 -8 c35 -6 64 -15 64 -18 0 -7 -161
18 -169 26 -8 8 41 4 105 -8z m-1099 -44 c-5 -6 -140 -34 -161 -34 -26 0 13
16 62 26 66 13 108 17 99 8z m1079 -5 c72 -13 88 -18 82 -24 -6 -6 -157 20
-165 29 -9 9 16 8 83 -5z m-1081 -48 c-11 -9 -115 -31 -148 -31 -36 0 -12 10
59 24 87 17 101 18 89 7z m1079 -6 c74 -14 107 -25 76 -25 -32 0 -146 23 -154
31 -13 11 -15 12 78 -6z m-1074 -49 c0 -2 -30 -9 -67 -15 -38 -7 -76 -14 -85
-17 -10 -3 -18 -1 -18 4 0 5 26 14 58 20 63 10 112 14 112 8z m1091 -7 c38 -7
69 -16 69 -21 0 -5 -8 -7 -17 -4 -10 3 -48 10 -85 17 -38 6 -68 13 -68 15 0 7
28 5 101 -7z m-1094 -45 c-5 -6 -140 -34 -161 -34 -27 0 12 15 67 26 71 14
103 17 94 8z m1091 -8 c56 -12 91 -26 66 -26 -21 0 -156 28 -161 34 -10 10 27
6 95 -8z m-1092 -45 c-7 -11 -140 -35 -158 -28 -7 2 23 11 67 19 101 20 97 20
91 9z m570 -12 c19 -22 19 -22 -3 -8 -13 8 -23 17 -23 21 0 12 6 9 26 -13z
m528 1 c61 -10 85 -20 49 -20 -34 0 -138 22 -148 32 -6 6 -1 7 15 4 14 -3 52
-10 84 -16z m-1096 -45 c-2 -3 -31 -10 -64 -15 -32 -6 -69 -13 -81 -15 -13 -3
-23 -1 -23 4 0 5 26 13 58 19 65 11 118 14 110 7z m1093 -6 c38 -7 69 -16 69
-21 0 -5 -8 -7 -17 -4 -10 3 -48 10 -85 17 -38 6 -68 13 -68 15 0 7 28 5 101
-7z m-1101 -48 c-19 -11 -151 -34 -157 -27 -3 3 5 7 18 10 120 26 165 32 139
17z m1076 -2 c72 -13 97 -19 91 -25 -6 -7 -138 16 -157 27 -20 11 -5 11 66 -2z
m-1077 -53 c-9 -8 -159 -32 -159 -25 0 4 35 13 78 21 71 13 92 14 81 4z m591
5 c0 -5 -7 -12 -16 -15 -14 -5 -15 -4 -4 9 14 17 20 19 20 6z m515 -12 c39 -7
64 -14 57 -17 -19 -6 -151 18 -158 30 -4 6 1 8 12 5 11 -3 51 -11 89 -18z
m-1096 -44 c-4 -3 -153 -35 -166 -35 -2 0 -3 4 -3 9 0 4 28 13 63 18 73 12
112 15 106 8z m1091 -7 c38 -7 70 -16 70 -20 0 -5 -10 -6 -22 -3 -13 2 -50 9
-82 15 -58 10 -85 20 -53 20 9 0 48 -5 87 -12z m-1095 -46 c-9 -8 -126 -32
-155 -32 -30 0 4 14 62 25 78 16 105 18 93 7z m1067 -2 c92 -19 100 -21 95
-26 -6 -7 -138 16 -157 27 -21 12 -2 11 62 -1z m-1072 -57 c-8 -2 -48 -9 -87
-16 -40 -8 -73 -11 -73 -7 0 9 152 38 165 31 6 -3 3 -7 -5 -8z m1103 -3 c37
-7 67 -15 67 -19 0 -4 -38 -1 -85 8 -47 8 -85 18 -85 23 0 5 8 7 18 5 9 -3 47
-11 85 -17z m-1094 -45 c-8 -7 -162 -35 -167 -30 -7 6 14 13 73 24 58 10 101
13 94 6z m1119 -12 c23 -3 42 -10 42 -14 0 -11 9 -12 -84 6 -86 16 -120 32
-46 21 25 -4 64 -10 88 -13z m-1123 -41 c-12 -11 -154 -36 -161 -29 -3 3 18
10 48 16 29 5 62 12 73 14 35 8 49 7 40 -1z m1090 -8 c50 -6 95 -23 66 -24
-31 0 -147 24 -156 33 -6 6 -1 8 15 4 14 -3 48 -9 75 -13z m75 -74 c0 -3 -38
0 -85 9 -46 8 -82 17 -80 21 5 8 165 -21 165 -30z m-1220 14 c-36 -8 -75 -16
-87 -19 -13 -3 -23 -1 -23 3 0 11 89 29 140 30 25 0 16 -4 -30 -14z m50 -43
c-8 -5 -37 -12 -65 -15 -27 -4 -61 -10 -75 -13 -14 -3 -22 -2 -17 3 9 10 105
31 147 32 19 1 21 -1 10 -7z m1089 -2 c36 -6 71 -16 76 -21 7 -7 0 -8 -20 -5
-102 19 -145 29 -145 33 0 6 18 5 89 -7z m-1083 -48 c-6 -10 -155 -35 -163
-28 -3 3 12 9 33 12 22 4 55 11 74 15 49 11 62 11 56 1z m1107 -11 c32 -7 56
-14 54 -17 -8 -8 -157 19 -164 29 -3 6 6 8 23 5 16 -4 55 -11 87 -17z m-1108
-50 c-3 -5 -32 -9 -63 -9 -47 1 -52 3 -27 9 45 12 97 12 90 0z m1090 0 c25 -6
20 -8 -27 -9 -31 0 -60 4 -63 9 -7 12 45 12 90 0z" />
    <path d="M820 1750 c0 -63 2 -70 20 -70 18 0 20 7 20 70 0 63 -2 70 -20 70
-18 0 -20 -7 -20 -70z" />
    <path d="M1870 1750 c0 -63 2 -70 20 -70 18 0 20 7 20 70 0 63 -2 70 -20 70
-18 0 -20 -7 -20 -70z" />
    <path
      d="M2776 1478 c-3 -18 -24 -206 -46 -418 -22 -212 -43 -395 -45 -407 -5
-22 -3 -23 59 -23 74 0 70 -6 81 122 6 65 12 84 38 118 17 22 34 37 38 32 4
-4 26 -67 48 -139 l42 -133 70 0 c53 0 70 3 66 13 -37 99 -126 391 -120 400 4
7 44 58 90 114 46 55 83 104 83 107 0 3 -35 6 -77 6 l-78 -1 -79 -105 c-44
-57 -81 -102 -83 -100 -4 4 31 345 43 414 l5 32 -65 0 -65 0 -5 -32z" />
    <path
      d="M2330 1269 c-40 -16 -81 -60 -106 -114 l-24 -50 38 -12 c60 -19 76
-16 95 17 20 33 46 43 98 38 26 -2 37 -10 48 -32 22 -46 3 -72 -66 -91 -165
-46 -202 -68 -234 -140 -23 -50 -25 -154 -4 -195 25 -48 62 -70 117 -70 50 0
113 25 137 54 20 24 31 19 31 -14 l0 -30 63 0 64 0 -5 78 c-2 42 3 139 12 214
23 194 21 268 -5 302 -34 43 -70 56 -156 55 -43 0 -89 -5 -103 -10z m136 -376
c-4 -21 -9 -50 -12 -65 -7 -36 -67 -88 -101 -88 -39 0 -63 27 -63 70 0 52 24
77 95 100 86 27 88 27 81 -17z" />
    <path
      d="M3903 1259 c-96 -47 -141 -197 -86 -290 20 -33 82 -68 175 -98 36
-12 69 -29 72 -37 18 -46 -30 -94 -94 -94 -38 0 -90 47 -90 80 0 18 -4 21 -22
17 -13 -4 -42 -9 -65 -13 -37 -6 -43 -10 -43 -31 0 -30 25 -91 48 -116 52 -57
184 -76 268 -38 104 47 163 192 120 294 -17 42 -49 62 -166 106 -85 32 -95 39
-98 63 -4 35 30 58 84 58 34 0 47 -5 63 -26 11 -14 21 -30 23 -36 3 -7 21 -6
61 2 51 12 57 16 57 39 0 41 -42 104 -80 123 -51 26 -172 24 -227 -3z" />
    <path
      d="M3270 1266 c0 -2 -12 -109 -26 -237 -15 -140 -23 -252 -19 -279 13
-85 59 -130 133 -130 55 0 83 12 133 57 l42 38 -7 -42 -6 -43 59 0 60 0 6 43
c4 35 65 586 65 594 0 2 -29 3 -65 3 -36 0 -65 -4 -65 -9 0 -24 -31 -294 -41
-356 -6 -38 -17 -82 -25 -96 -28 -55 -104 -77 -137 -41 -26 29 -23 109 18 455
l6 47 -66 0 c-36 0 -65 -2 -65 -4z" />
    <path
      d="M4332 1058 c-26 -245 -27 -316 -8 -361 21 -50 50 -70 110 -75 60 -5
96 10 145 58 l31 32 0 -41 0 -41 58 0 57 0 33 313 c18 171 33 316 32 320 0 4
-28 7 -62 5 l-62 -3 -22 -190 c-12 -104 -27 -209 -33 -232 -24 -88 -128 -126
-160 -58 -15 31 -14 53 26 428 l6 57 -65 0 -64 0 -22 -212z" />
  </g>
</svg>